<svg xmlns:dc="http://purl.org/dc/elements/1.1/" xmlns:cc="http://creativecommons.org/ns#" xmlns:rdf="http://www.w3.org/1999/02/22-rdf-syntax-ns#" xmlns:svg="http://www.w3.org/2000/svg" xmlns="http://www.w3.org/2000/svg" xmlns:xlink="http://www.w3.org/1999/xlink" id="svg478092" version="1.1" viewBox="240.26 341.25 543.55 85.49">   <metadata id="metadata478098">     <rdf:rdf>       <cc:work rdf:about="">         <dc:format>image/svg+xml</dc:format>         <dc:type rdf:resource="http://purl.org/dc/dcmitype/StillImage"/>       </cc:work>     </rdf:rdf>   </metadata>   <defs id="defs478096"/>   <linearGradient spreadMethod="pad" y2="30%" x2="-10%" y1="120%" x1="30%" id="3d_gradient2-logo-b6bcc116-2743-43e2-bfd6-85f1535f9ebe">     <stop id="stop478073" stop-opacity="1" stop-color="#ffffff" offset="0%"/>     <stop id="stop478075" stop-opacity="1" stop-color="#000000" offset="100%"/>   </linearGradient>   <linearGradient gradientTransform="rotate(-30)" spreadMethod="pad" y2="30%" x2="-10%" y1="120%" x1="30%" id="3d_gradient3-logo-b6bcc116-2743-43e2-bfd6-85f1535f9ebe">     <stop id="stop478078" stop-opacity="1" stop-color="#ffffff" offset="0%"/>     <stop id="stop478080" stop-opacity="1" stop-color="#cccccc" offset="50%"/>     <stop id="stop478082" stop-opacity="1" stop-color="#000000" offset="100%"/>   </linearGradient>   <g id="logo-group">     <image xlink:href="" id="container" x="272" y="144" width="480" height="480" style="display: none;" transform="translate(0 0)"/>     <g id="logo-center" transform="translate(5.684341886080802e-14 0)">       <image xlink:href="" id="icon_container" style="display: none;" x="0" y="0"/>       <g id="slogan" style="font-style:normal;font-weight:300;font-size:32px;line-height:1;font-family:Comfortaa;font-variant-ligatures:none;text-align:center;text-anchor:middle" transform="translate(0 0)"/>       <g id="title" style="font-style:normal;font-weight:normal;font-size:72px;line-height:1;font-family:'Brandmark Sans 28';font-variant-ligatures:normal;text-align:center;text-anchor:middle" transform="translate(0 0)">         <g id="path478101" aria-label="Y" transform="translate(0 325.02268) translate(240.26166645 16.232000000000006) scale(1.67) translate(-385.64506 50.4)"> <polygon class="c1" points="110.61768,74.09332 100,94.06689 89.38232,74.09332 74.78174,74.09332 92.69971,107.79993 92.69971,124.52948 107.30029,124.52948 107.30029,107.79993 125.21826,74.09332 " transform="translate(310.86332 -124.49332)" stroke-width="0" stroke-linejoin="miter" stroke-miterlimit="2" fill="#f1c52c" stroke="#f1c52c"/> <linearGradient id="7a99cf54-4964-4b03-895d-2109c96c5188" gradientUnits="userSpaceOnUse" x1="101.59605" y1="104.51739" x2="119.66432" y2="71.21508"> <stop offset="0.31657" style="stop-color:#FFFFFF;stop-opacity:0"/> <stop offset="1" style="stop-color:#FFFFFF;stop-opacity:0.5"/> </linearGradient> <polygon class="highlight" fill="url(#7a99cf54-4964-4b03-895d-2109c96c5188)" points="110.61756,74.09333 125.21806,74.09333 107.30025,107.79992 92.69975,107.79992 " transform="translate(310.86332 -124.49332)" stroke-width="0" stroke-linejoin="miter" stroke-miterlimit="2" opacity="1"/> <linearGradient id="00b61a7a-c4ea-4be6-b1c3-bb60b943d95a" gradientUnits="userSpaceOnUse" x1="101.59605" y1="104.51739" x2="119.66432" y2="71.21508"> <stop offset="0" style="stop-color:#231F20;stop-opacity:0.3"/> <stop offset="0.77499" style="stop-color:#231F20;stop-opacity:0"/> </linearGradient> <polygon class="highlight" fill="url(#00b61a7a-c4ea-4be6-b1c3-bb60b943d95a)" points="110.61756,74.09333 125.21806,74.09333 107.30025,107.79992 92.69975,107.79992 " transform="translate(310.86332 -124.49332)" stroke-width="0" stroke-linejoin="miter" stroke-miterlimit="2" opacity="1"/> <linearGradient id="68c95af8-478d-4279-a90b-33b9a11995aa" gradientUnits="userSpaceOnUse" x1="100" y1="124.5295" x2="100" y2="107.79992"> <stop offset="0" style="stop-color:#231F20;stop-opacity:0.3"/> <stop offset="0.7933" style="stop-color:#231F20;stop-opacity:0"/> </linearGradient> <rect x="92.69975" y="107.79992" class="highlight" fill="url(#68c95af8-478d-4279-a90b-33b9a11995aa)" width="14.6005" height="16.72959" transform="translate(310.86332 -124.49332)" stroke-width="0" stroke-linejoin="miter" stroke-miterlimit="2" opacity="1"/> <linearGradient id="999dff4c-5b71-4c29-97f2-12f35320719a" gradientUnits="userSpaceOnUse" x1="98.41799" y1="104.42376" x2="79.99544" y2="70.76717"> <stop offset="0" style="stop-color:#231F20;stop-opacity:0.65"/> <stop offset="0.01048" style="stop-color:#231F20;stop-opacity:0.64101"/> <stop offset="0.75791" style="stop-color:#231F20;stop-opacity:0"/> </linearGradient> <polygon class="highlight" fill="url(#999dff4c-5b71-4c29-97f2-12f35320719a)" points="89.38232,74.09332 74.78174,74.09332 92.69971,107.79987 100,94.06683 " transform="translate(310.86332 -124.49332)" stroke-width="0" stroke-linejoin="miter" stroke-miterlimit="2" opacity="1"/> </g>         <g id="path478103" aria-label="A" transform="translate(0 325.02268) translate(338.2503860500001 16.232000000000006) scale(1.67) translate(-429.32094 50.4)"> <polygon class="c1" points="126.98309,124.52972 107.96387,74.09351 107.07361,74.09351 92.69977,74.09351 91.80945,74.09351 73.01691,124.52972 88.28107,124.52972 99.92975,93.26648 111.71893,124.52972 " transform="translate(356.30403 -124.49351)" stroke-width="0" stroke-linejoin="miter" stroke-miterlimit="2" fill="#f1c52c" stroke="#f1c52c"/> <linearGradient id="5afa10c0-4657-4476-be9a-d24d036249f4" gradientUnits="userSpaceOnUse" x1="99.69487" y1="74.29882" x2="80.55542" y2="123.91029"> <stop offset="0.22" style="stop-color:#231F20;stop-opacity:0"/> <stop offset="0.47363" style="stop-color:#1E1A1B;stop-opacity:0.13006"/> <stop offset="0.78476" style="stop-color:#0F0D0D;stop-opacity:0.28962"/> <stop offset="1" style="stop-color:#000000;stop-opacity:0.4"/> </linearGradient> <polygon class="highlight" fill="url(#5afa10c0-4657-4476-be9a-d24d036249f4)" points="107.07359,74.09354 91.80946,74.09354 73.01694,124.52972 88.28106,124.52972 " transform="translate(356.30403 -124.49351)" stroke-width="0" stroke-linejoin="miter" stroke-miterlimit="2" opacity="1"/> <linearGradient id="a90a5764-40c9-461b-9214-d9d96b141a84" gradientUnits="userSpaceOnUse" x1="99.69487" y1="74.29882" x2="80.55542" y2="123.91029"> <stop offset="0" style="stop-color:#FFFFFF;stop-opacity:0.4"/> <stop offset="0.78" style="stop-color:#FFFFFF;stop-opacity:0"/> </linearGradient> <polygon class="highlight" fill="url(#a90a5764-40c9-461b-9214-d9d96b141a84)" points="107.07359,74.09354 91.80946,74.09354 73.01694,124.52972 88.28106,124.52972 " transform="translate(356.30403 -124.49351)" stroke-width="0" stroke-linejoin="miter" stroke-miterlimit="2" opacity="1"/> <linearGradient id="a9ecff38-ed54-4f46-b2ad-a8cc4a3ca960" gradientUnits="userSpaceOnUse" x1="118.91997" y1="121.8189" x2="100.46027" y2="76.05422"> <stop offset="0" style="stop-color:#231F20;stop-opacity:0"/> <stop offset="0.32516" style="stop-color:#1E1A1B;stop-opacity:0.13006"/> <stop offset="0.72405" style="stop-color:#0F0D0D;stop-opacity:0.28962"/> <stop offset="1" style="stop-color:#000000;stop-opacity:0.4"/> </linearGradient> <polygon class="highlight" fill="url(#a9ecff38-ed54-4f46-b2ad-a8cc4a3ca960)" points="126.98309,124.52972 107.96387,74.09351 107.07361,74.09351 99.92975,93.26648 111.71893,124.52972 " transform="translate(356.30403 -124.49351)" stroke-width="0" stroke-linejoin="miter" stroke-miterlimit="2" opacity="1"/> </g>         <g id="path478105" aria-label="Y" transform="translate(0 325.02268) translate(442.30558105000006 16.232000000000006) scale(1.67) translate(-476.62944 50.4)"> <polygon class="c1" points="110.61768,74.09332 100,94.06689 89.38232,74.09332 74.78174,74.09332 92.69971,107.79993 92.69971,124.52948 107.30029,124.52948 107.30029,107.79993 125.21826,74.09332 " transform="translate(401.8477 -124.49332)" stroke-width="0" stroke-linejoin="miter" stroke-miterlimit="2" fill="#f1c52c" stroke="#f1c52c"/> <linearGradient id="4dc5a558-9abe-4778-addb-766ddb84ad75" gradientUnits="userSpaceOnUse" x1="101.59605" y1="104.51739" x2="119.66432" y2="71.21508"> <stop offset="0.31657" style="stop-color:#FFFFFF;stop-opacity:0"/> <stop offset="1" style="stop-color:#FFFFFF;stop-opacity:0.5"/> </linearGradient> <polygon class="highlight" fill="url(#4dc5a558-9abe-4778-addb-766ddb84ad75)" points="110.61756,74.09333 125.21806,74.09333 107.30025,107.79992 92.69975,107.79992 " transform="translate(401.8477 -124.49332)" stroke-width="0" stroke-linejoin="miter" stroke-miterlimit="2" opacity="1"/> <linearGradient id="1acad1ad-9b69-4bb6-9d97-999cd39fabaa" gradientUnits="userSpaceOnUse" x1="101.59605" y1="104.51739" x2="119.66432" y2="71.21508"> <stop offset="0" style="stop-color:#231F20;stop-opacity:0.3"/> <stop offset="0.77499" style="stop-color:#231F20;stop-opacity:0"/> </linearGradient> <polygon class="highlight" fill="url(#1acad1ad-9b69-4bb6-9d97-999cd39fabaa)" points="110.61756,74.09333 125.21806,74.09333 107.30025,107.79992 92.69975,107.79992 " transform="translate(401.8477 -124.49332)" stroke-width="0" stroke-linejoin="miter" stroke-miterlimit="2" opacity="1"/> <linearGradient id="a7da7bab-6d6d-4314-aa5c-ab4bcaa353b0" gradientUnits="userSpaceOnUse" x1="100" y1="124.5295" x2="100" y2="107.79992"> <stop offset="0" style="stop-color:#231F20;stop-opacity:0.3"/> <stop offset="0.7933" style="stop-color:#231F20;stop-opacity:0"/> </linearGradient> <rect x="92.69975" y="107.79992" class="highlight" fill="url(#a7da7bab-6d6d-4314-aa5c-ab4bcaa353b0)" width="14.6005" height="16.72959" transform="translate(401.8477 -124.49332)" stroke-width="0" stroke-linejoin="miter" stroke-miterlimit="2" opacity="1"/> <linearGradient id="1d6a64ab-86f4-40a3-ba84-95983581649e" gradientUnits="userSpaceOnUse" x1="98.41799" y1="104.42376" x2="79.99544" y2="70.76717"> <stop offset="0" style="stop-color:#231F20;stop-opacity:0.65"/> <stop offset="0.01048" style="stop-color:#231F20;stop-opacity:0.64101"/> <stop offset="0.75791" style="stop-color:#231F20;stop-opacity:0"/> </linearGradient> <polygon class="highlight" fill="url(#1d6a64ab-86f4-40a3-ba84-95983581649e)" points="89.38232,74.09332 74.78174,74.09332 92.69971,107.79987 100,94.06683 " transform="translate(401.8477 -124.49332)" stroke-width="0" stroke-linejoin="miter" stroke-miterlimit="2" opacity="1"/> </g>         <g id="path478107" aria-label="." transform="translate(0 325.02268) translate(548.34660645 76.47224) scale(1.67) translate(-525.12706 14.328)"> <circle class="c1" cx="100" cy="118.69658" r="7.5609" transform="translate(432.68796 -125.46368)" stroke-width="0" stroke-linejoin="miter" stroke-miterlimit="2" fill="#f1c52c" stroke="#f1c52c"/> <linearGradient id="50c1d04e-1030-4327-b573-0e751c34052e" gradientUnits="userSpaceOnUse" x1="100" y1="112.76843" x2="100" y2="126.00671"> <stop offset="0" style="stop-color:#231F20;stop-opacity:0"/> <stop offset="0.32516" style="stop-color:#1E1A1B;stop-opacity:0.13006"/> <stop offset="0.72405" style="stop-color:#0F0D0D;stop-opacity:0.28962"/> <stop offset="1" style="stop-color:#000000;stop-opacity:0.4"/> </linearGradient> <circle class="highlight" fill="url(#50c1d04e-1030-4327-b573-0e751c34052e)" cx="100" cy="118.69658" r="7.5609" transform="translate(432.68796 -125.46368)" stroke-width="0" stroke-linejoin="miter" stroke-miterlimit="2" opacity="1"/> </g>         <g id="path478109" aria-label="J" transform="translate(0 325.02268) translate(603.2856485499999 16.232000000000006) scale(1.67) translate(-543.02469 50.4)"> <polygon class="c1" points="121.1521,74.09332 106.55151,74.09332 106.55151,111.25647 93.44849,111.25641 93.44849,105.94775 78.8479,105.94775 78.8479,111.25641 93.3833,124.4704 93.38281,124.52869 93.44727,124.52869 93.44849,124.52972 93.44849,124.52869 106.55151,124.52887 106.55151,124.52972 117.03418,115.00006 121.1521,111.25659 121.15186,111.25659 121.1521,111.25641 " transform="translate(464.17679 -124.49332)" stroke-width="0" stroke-linejoin="miter" stroke-miterlimit="2" fill="#f1c52c" stroke="#f1c52c"/> <linearGradient id="d7755ed1-92dc-48fe-9216-5be1c8199a56" gradientUnits="userSpaceOnUse" x1="86.14822" y1="123.70199" x2="86.14822" y2="74.89993"> <stop offset="0" style="stop-color:#000000;stop-opacity:0.3"/> <stop offset="0.14801" style="stop-color:#0F0D0D;stop-opacity:0.21727"/> <stop offset="0.36222" style="stop-color:#1E1A1B;stop-opacity:0.09755"/> <stop offset="0.53675" style="stop-color:#231F20;stop-opacity:0"/> </linearGradient> <polygon class="highlight" fill="url(#d7755ed1-92dc-48fe-9216-5be1c8199a56)" points="78.84798,111.25641 93.44847,124.52972 93.44847,105.94776 78.84798,105.94776 " transform="translate(464.17679 -124.49332)" stroke-width="0" stroke-linejoin="miter" stroke-miterlimit="2" opacity="1"/> <linearGradient id="2d6f6c01-3fc2-4082-b15d-18f19d99f80d" gradientUnits="userSpaceOnUse" x1="93.38293" y1="117.89264" x2="110.17489" y2="117.89264"> <stop offset="0" style="stop-color:#000000;stop-opacity:0.4"/> <stop offset="0.27595" style="stop-color:#0F0D0D;stop-opacity:0.28962"/> <stop offset="0.67484" style="stop-color:#1E1A1B;stop-opacity:0.13006"/> <stop offset="1" style="stop-color:#231F20;stop-opacity:0"/> </linearGradient> <polygon class="highlight" fill="url(#2d6f6c01-3fc2-4082-b15d-18f19d99f80d)" points="106.55191,124.52886 121.15202,111.25659 93.44847,111.25641 93.38293,124.52869 " transform="translate(464.17679 -124.49332)" stroke-width="0" stroke-linejoin="miter" stroke-miterlimit="2" opacity="1"/> <linearGradient id="fbdbf521-184c-4fe0-ade3-3bf4b3abceb0" gradientUnits="userSpaceOnUse" x1="86.14822" y1="123.70199" x2="86.14822" y2="74.89993"> <stop offset="0.41723" style="stop-color:#FFFFFF;stop-opacity:0"/> <stop offset="1" style="stop-color:#FFFFFF;stop-opacity:0.8"/> </linearGradient> <polygon class="highlight" fill="url(#fbdbf521-184c-4fe0-ade3-3bf4b3abceb0)" points="78.84798,111.25641 93.44847,124.52972 93.44847,105.94776 78.84798,105.94776 " transform="translate(464.17679 -124.49332)" stroke-width="0" stroke-linejoin="miter" stroke-miterlimit="2" opacity="1"/> <linearGradient id="5a842c0f-a134-4bda-a316-5dd966831fa3" gradientUnits="userSpaceOnUse" x1="113.85181" y1="96.45901" x2="113.85181" y2="74.32123"> <stop offset="0.53675" style="stop-color:#FFFFFF;stop-opacity:0"/> <stop offset="1" style="stop-color:#FFFFFF;stop-opacity:0.3"/> </linearGradient> <rect x="106.55151" y="74.09332" class="highlight" fill="url(#5a842c0f-a134-4bda-a316-5dd966831fa3)" width="14.60059" height="37.16309" transform="translate(464.17679 -124.49332)" stroke-width="0" stroke-linejoin="miter" stroke-miterlimit="2" opacity="1"/> <linearGradient id="0906587d-71f9-4af4-b903-79a6e04d99d6" gradientUnits="userSpaceOnUse" x1="113.85181" y1="116.42982" x2="113.85181" y2="94.29203"> <stop offset="0" style="stop-color:#000000;stop-opacity:0.3"/> <stop offset="0.27576" style="stop-color:#0F0D0D;stop-opacity:0.21727"/> <stop offset="0.67484" style="stop-color:#1E1A1B;stop-opacity:0.09755"/> <stop offset="1" style="stop-color:#231F20;stop-opacity:0"/> </linearGradient> <rect x="106.55151" y="74.09332" class="highlight" fill="url(#0906587d-71f9-4af4-b903-79a6e04d99d6)" width="14.60059" height="37.16309" transform="translate(464.17679 -124.49332)" stroke-width="0" stroke-linejoin="miter" stroke-miterlimit="2" opacity="1"/> </g>         <g id="path478111" aria-label="S" transform="translate(0 325.02268) translate(707.6264135499999 16.232000000000006) scale(1.67) translate(-590.50419 50.4)"> <polygon class="c1" points="122.81104,105.27606 108.21094,92.00378 91.78931,92.00391 91.78931,87.38348 120.81104,87.38361 120.81104,74.11133 91.78931,74.11121 91.78931,74.11035 81.30688,83.63995 77.18896,87.38342 77.18896,87.38361 77.18896,92.00378 77.18896,92.00397 91.78931,105.27625 108.21069,105.27612 108.21069,111.25647 79.18896,111.25635 79.18896,124.52863 108.21069,124.52881 108.21069,124.52966 118.69312,115 122.81104,111.25653 122.81104,111.25635 122.81104,105.27625 122.80835,105.27606 " transform="translate(513.31535 -124.51035)" stroke-width="0" stroke-linejoin="miter" stroke-miterlimit="2" fill="#f1c52c" stroke="#f1c52c"/> <linearGradient id="71f95e58-6f59-4eef-a8d7-dd83ec525fdc" gradientUnits="userSpaceOnUse" x1="79.18899" y1="117.89261" x2="105.5673" y2="117.89261"> <stop offset="0" style="stop-color:#FFFFFF;stop-opacity:0.5"/> <stop offset="0.01383" style="stop-color:#FFFFFF;stop-opacity:0.49309"/> <stop offset="1" style="stop-color:#FFFFFF;stop-opacity:0"/> </linearGradient> <polygon class="highlight" fill="url(#71f95e58-6f59-4eef-a8d7-dd83ec525fdc)" points="108.21104,124.52884 122.81116,111.25656 79.18899,111.25639 79.18899,124.52866 " transform="translate(513.31535 -124.51035)" stroke-width="0" stroke-linejoin="miter" stroke-miterlimit="2" opacity="1"/> <linearGradient id="616accc9-3f35-4d84-8877-0489996090d9" gradientUnits="userSpaceOnUse" x1="194.231" y1="104.61896" x2="220.60931" y2="104.61896" gradientTransform="matrix(-1 0 0 -1 315.04202 185.36638)"> <stop offset="0" style="stop-color:#FFFFFF;stop-opacity:0"/> <stop offset="0.98617" style="stop-color:#FFFFFF;stop-opacity:0.49309"/> <stop offset="1" style="stop-color:#FFFFFF;stop-opacity:0.5"/> </linearGradient> <polygon class="highlight" fill="url(#616accc9-3f35-4d84-8877-0489996090d9)" points="91.78896,74.11119 77.18884,87.38347 120.81101,87.38364 120.811,74.11136 " transform="translate(513.31535 -124.51035)" stroke-width="0" stroke-linejoin="miter" stroke-miterlimit="2" opacity="1"/> <linearGradient id="ebbfbfb1-8181-4f04-be1d-6534f212a8a2" gradientUnits="userSpaceOnUse" x1="115.5109" y1="101.93358" x2="115.5109" y2="115.66119"> <stop offset="0" style="stop-color:#000000;stop-opacity:0.4"/> <stop offset="0.27595" style="stop-color:#0F0D0D;stop-opacity:0.28962"/> <stop offset="0.67484" style="stop-color:#1E1A1B;stop-opacity:0.13006"/> <stop offset="1" style="stop-color:#231F20;stop-opacity:0"/> </linearGradient> <polygon class="highlight" fill="url(#ebbfbfb1-8181-4f04-be1d-6534f212a8a2)" points="122.81116,111.25639 108.21066,124.52969 108.21066,105.27625 122.81116,105.27625 " transform="translate(513.31535 -124.51035)" stroke-width="0" stroke-linejoin="miter" stroke-miterlimit="2" opacity="1"/> <linearGradient id="cc18bede-c0dd-4a37-bfce-cf29cb8d0945" gradientUnits="userSpaceOnUse" x1="84.96902" y1="79.05431" x2="84.45682" y2="97.49329"> <stop offset="0" style="stop-color:#000000;stop-opacity:0.4"/> <stop offset="0.27595" style="stop-color:#0F0D0D;stop-opacity:0.28962"/> <stop offset="0.67484" style="stop-color:#1E1A1B;stop-opacity:0.13006"/> <stop offset="1" style="stop-color:#231F20;stop-opacity:0"/> </linearGradient> <polygon class="highlight" fill="url(#cc18bede-c0dd-4a37-bfce-cf29cb8d0945)" points="77.18896,87.38361 77.18896,92.00378 91.78931,105.27625 91.78931,87.38361 " transform="translate(513.31535 -124.51035)" stroke-width="0" stroke-linejoin="miter" stroke-miterlimit="2" opacity="1"/> <linearGradient id="26203717-8794-4d63-bc4b-05b6f6c67781" gradientUnits="userSpaceOnUse" x1="86.25433" y1="86.72636" x2="113.84203" y2="86.72636" gradientTransform="matrix(1 0 0 -1 -0.00018 185.36638)"> <stop offset="0" style="stop-color:#000000;stop-opacity:0.4"/> <stop offset="0.27595" style="stop-color:#0F0D0D;stop-opacity:0.28962"/> <stop offset="0.67484" style="stop-color:#1E1A1B;stop-opacity:0.13006"/> <stop offset="1" style="stop-color:#231F20;stop-opacity:0"/> </linearGradient> <polygon class="highlight" fill="url(#26203717-8794-4d63-bc4b-05b6f6c67781)" points="108.21094,92.00378 91.78931,92.00391 91.78931,105.27625 122.81104,105.27606 " transform="translate(513.31535 -124.51035)" stroke-width="0" stroke-linejoin="miter" stroke-miterlimit="2" opacity="1"/> <linearGradient id="5339bd4c-8170-4578-91da-edceaab0b4aa" gradientUnits="userSpaceOnUse" x1="86.25433" y1="86.72636" x2="113.84203" y2="86.72636" gradientTransform="matrix(1 0 0 -1 -0.00018 185.36638)"> <stop offset="0" style="stop-color:#FFFFFF;stop-opacity:0"/> <stop offset="0.98617" style="stop-color:#FFFFFF;stop-opacity:0.49309"/> <stop offset="1" style="stop-color:#FFFFFF;stop-opacity:0.5"/> </linearGradient> <polygon class="highlight" fill="url(#5339bd4c-8170-4578-91da-edceaab0b4aa)" points="108.21094,92.00378 91.78931,92.00391 91.78931,105.27625 122.81104,105.27606 " transform="translate(513.31535 -124.51035)" stroke-width="0" stroke-linejoin="miter" stroke-miterlimit="2" opacity="1"/> <linearGradient id="4f7dbccb-4d87-47b1-9da4-5bf58dcc2d04" gradientUnits="userSpaceOnUse" x1="119.57272" y1="117.89258" x2="89.39713" y2="117.89258"> <stop offset="0" style="stop-color:#000000;stop-opacity:0.4"/> <stop offset="0.27595" style="stop-color:#0F0D0D;stop-opacity:0.28962"/> <stop offset="0.67484" style="stop-color:#1E1A1B;stop-opacity:0.13006"/> <stop offset="1" style="stop-color:#231F20;stop-opacity:0"/> </linearGradient> <rect x="79.18896" y="111.25641" class="highlight" fill="url(#4f7dbccb-4d87-47b1-9da4-5bf58dcc2d04)" width="29.02173" height="13.27231" transform="translate(513.31535 -124.51035)" stroke-width="0" stroke-linejoin="miter" stroke-miterlimit="2" opacity="1"/> </g>             </g>       <image xlink:href="" id="icon" style="display: none;" x="0" y="0"/>     </g>   </g> </svg>